<?xml version="1.0" encoding="UTF-8"?>
<svg class="charsvg" data-exp="neutral" width="280" viewBox="0 0 200 280" xmlns="http://www.w3.org/2000/svg"><defs><radialGradient id="c4skin" cx="42%" cy="38%" r="70%"><stop offset="0" stop-color="#f9e6d1"/><stop offset="62%" stop-color="#f0d0ac"/><stop offset="100%" stop-color="#e2b184"/></radialGradient><linearGradient id="c4hair" x1="0" y1="0" x2="0" y2="1"><stop offset="0" stop-color="#4a4038"/><stop offset="55%" stop-color="#37302a"/><stop offset="100%" stop-color="#2a2420"/></linearGradient><linearGradient id="c4cloth" x1="0" y1="0" x2="0" y2="1"><stop offset="0" stop-color="#6cc0b9"/><stop offset="100%" stop-color="#4fa6a0"/></linearGradient><linearGradient id="c4clothL" x1="0" y1="0" x2="1" y2="0"><stop offset="0" stop-color="#4fa6a0"/><stop offset="100%" stop-color="#3c827c"/></linearGradient><radialGradient id="c4blush" cx="50%" cy="50%" r="50%"><stop offset="0" stop-color="#e88f72" stop-opacity=".55"/><stop offset="100%" stop-color="#e88f72" stop-opacity="0"/></radialGradient><filter id="csoft" x="-30%" y="-30%" width="160%" height="160%"><feGaussianBlur stdDeviation="3.2"/></filter></defs><ellipse cx="100" cy="270" rx="80" ry="10" fill="#3b3025" opacity=".16" filter="url(#csoft)"/><g stroke="#3b3025" stroke-width="3" stroke-linejoin="round" stroke-linecap="round"><path fill="url(#c4hair)" d="M58,100 q-14,-48 30,-64 q28,-20 58,-6 q34,14 26,54 q10,40 -2,96 q-14,4 -16,-10 q4,-46 -6,-70 q-6,-4 -8,6 q4,42 -4,80 q-14,4 -16,-8 q4,-44 -8,-72 q-6,-2 -6,8 q2,40 -6,76 q-14,2 -16,-10 q4,-42 -10,-64 q-8,10 -6,26 q2,-6 -8,-2 q-6,-16 -2,-40 z"/></g><g stroke="#3b3025" stroke-width="3" stroke-linejoin="round"><path fill="url(#c4skin)" d="M100,150 q20,10 40,0 l-2,34 q-18,9 -36,0 z"/><path d="M102,152 q18,8 36,0 l-1,11 q-17,7 -34,0 z" fill="#3b3025" opacity=".12" stroke="none"/><path fill="url(#c4skin)" d="M68,96 q-13,-2 -11,13 q2,13 15,11 z"/><path fill="url(#c4skin)" d="M172,96 q13,-2 11,13 q-2,13 -15,11 z"/></g><g stroke="#3b3025" stroke-width="3.2" stroke-linejoin="round"><path fill="url(#c4skin)" d="M72,96 q-4,-40 48,-42 q52,2 48,42 q4,34 -12,54 q-14,18 -36,18 q-22,0 -36,-18 q-16,-20 -12,-54 z"/></g><path d="M80,122 q-6,20 8,34 q-14,-4 -16,-24 q2,-8 8,-10z" fill="#3b3025" opacity=".07"/><ellipse cx="88" cy="130" rx="13" ry="9" fill="url(#c4blush)"/><ellipse cx="154" cy="130" rx="13" ry="9" fill="url(#c4blush)"/><g stroke="#3b3025" stroke-width="2.4" fill="none" stroke-linecap="round" stroke-linejoin="round"><path d="M120,106 q-4,15 -9,22 q-1,6 9,6 q10,0 9,-6 q-5,-7 -9,-22" fill="url(#c4skin)"/><path d="M113,130 q7,4 14,0" stroke-width="1.8"/></g><!-- eyes: see companion *-eyes.svg --><g stroke="#3b3025" stroke-width="1.8" fill="#dbe6f0" fill-opacity=".14" stroke-linejoin="round"><rect x="84" y="90" width="30" height="22" rx="8"/><rect x="126" y="90" width="30" height="22" rx="8"/></g><path d="M114,100 l12,0" fill="none" stroke="#3b3025" stroke-width="1.8"/><path d="M84,96 q-10,-2 -14,3" fill="none" stroke="#3b3025" stroke-width="1.8" stroke-linecap="round"/><path d="M156,96 q10,-2 14,3" fill="none" stroke="#3b3025" stroke-width="1.8" stroke-linecap="round"/><g class="x-neutral"><path d="M80,84 q18,-8 34,-2 q-4,6 -16,5 q-11,-1 -18,-3z" fill="#3b3025" stroke="#3b3025" stroke-width="1"/><path d="M124,82 q17,-6 34,2 q-6,3 -18,3 q-13,0 -16,-5z" fill="#3b3025" stroke="#3b3025" stroke-width="1"/></g><g class="x-neutral"><path d="M104,152 q16,7 32,0" fill="none" stroke="#3b3025" stroke-width="2.6" stroke-linecap="round"/></g><g stroke="#3b3025" stroke-width="2.6" stroke-linejoin="round" stroke-linecap="round"><path fill="url(#c4hair)" d="M74,66 q22,-16 46,-2 q4,6 -4,10 q-20,-10 -38,-2 q-4,-2 -4,-6z"/></g><g stroke="#3b3025" stroke-width="3.2" stroke-linejoin="round"><path fill="url(#c4cloth)" d="M104,172 q-38,10 -54,32 q-15,21 -17,96 l174,0 q-2,-75 -17,-96 q-16,-22 -54,-32 q-16,9 -32,0z"/><path fill="url(#c4clothL)" d="M120,176 q-14,2 -26,13 q19,-3 26,7z"/><path fill="#f3eddc" d="M120,176 q14,2 26,13 q-19,-3 -26,7z"/><circle cx="120" cy="240" r="3" fill="#d9d3c0" stroke="#3b3025" stroke-width="1.6"/><circle cx="120" cy="266" r="3" fill="#d9d3c0" stroke="#3b3025" stroke-width="1.6"/></g><g stroke="#3b3025" stroke-width="3.2" stroke-linejoin="round"><path fill="url(#c4cloth)" d="M56,196 q-22,10 -24,46 q-1,16 4,28 q4,8 14,7 q8,-1 11,-9 q3,-36 5,-58 q-2,-14 -10,-13z"/><path fill="url(#c4skin)" d="M38,266 q15,6 28,-2 q5,11 -4,19 q-15,7 -28,-3 q-3,-8 4,-14z"/><path d="M46,280 q3,8 -1,14 M55,281 q3,7 0,13 M63,279 q2,7 -1,12" fill="none" stroke-width="2"/><path fill="url(#c4clothL)" d="M184,196 q22,10 24,46 q1,16 -4,28 q-4,8 -14,7 q-8,-1 -11,-9 q-3,-36 -5,-58 q2,-14 10,-13z"/><path fill="url(#c4skin)" d="M202,266 q-15,6 -28,-2 q-5,11 4,19 q15,7 28,-3 q3,-8 -4,-14z"/><path d="M194,280 q-3,8 1,14 M185,281 q-3,7 0,13 M177,279 q-2,7 1,12" fill="none" stroke-width="2"/></g></svg>