<?xml version="1.0" encoding="UTF-8"?>
<svg class="charsvg" data-exp="neutral" width="280" viewBox="0 0 200 280" xmlns="http://www.w3.org/2000/svg"><defs><radialGradient id="c5skin" cx="42%" cy="38%" r="70%"><stop offset="0" stop-color="#f6e2ca"/><stop offset="62%" stop-color="#ecc99f"/><stop offset="100%" stop-color="#cf9f6d"/></radialGradient><linearGradient id="c5hair" x1="0" y1="0" x2="0" y2="1"><stop offset="0" stop-color="#eceae2"/><stop offset="55%" stop-color="#c3c2b8"/><stop offset="100%" stop-color="#9c9b91"/></linearGradient><linearGradient id="c5cloth" x1="0" y1="0" x2="0" y2="1"><stop offset="0" stop-color="#a37b4d"/><stop offset="100%" stop-color="#8a6238"/></linearGradient><linearGradient id="c5clothL" x1="0" y1="0" x2="1" y2="0"><stop offset="0" stop-color="#8a6238"/><stop offset="100%" stop-color="#6a4a29"/></linearGradient><radialGradient id="c5blush" cx="50%" cy="50%" r="50%"><stop offset="0" stop-color="#e88f72" stop-opacity=".55"/><stop offset="100%" stop-color="#e88f72" stop-opacity="0"/></radialGradient><filter id="csoft" x="-30%" y="-30%" width="160%" height="160%"><feGaussianBlur stdDeviation="3.2"/></filter></defs><ellipse cx="100" cy="270" rx="80" ry="10" fill="#3b3025" opacity=".16" filter="url(#csoft)"/><g stroke="#3b3025" stroke-width="3" stroke-linejoin="round" stroke-linecap="round"><path fill="url(#c5hair)" d="M60,132 q-10,-18 4,-32 q0,14 10,16 q-4,-14 6,-20 q8,20 -2,36z"/><path fill="url(#c5hair)" d="M180,132 q10,-18 -4,-32 q0,14 -10,16 q4,-14 -6,-20 q-8,20 2,36z"/><ellipse cx="120" cy="58" rx="46" ry="34" fill="url(#c5skin)" opacity=".001"/></g><g stroke="#3b3025" stroke-width="3" stroke-linejoin="round"><path fill="url(#c5skin)" d="M100,150 q20,10 40,0 l-2,34 q-18,9 -36,0 z"/><path d="M102,152 q18,8 36,0 l-1,11 q-17,7 -34,0 z" fill="#3b3025" opacity=".12" stroke="none"/><path fill="url(#c5skin)" d="M68,96 q-13,-2 -11,13 q2,13 15,11 z"/><path fill="url(#c5skin)" d="M172,96 q13,-2 11,13 q-2,13 -15,11 z"/></g><g stroke="#3b3025" stroke-width="3.2" stroke-linejoin="round"><path fill="url(#c5skin)" d="M72,100 q-4,-40 48,-42 q52,2 48,42 q4,34 -12,54 q-14,18 -36,18 q-22,0 -36,-18 q-16,-20 -12,-54 z"/></g><path d="M80,122 q-6,20 8,34 q-14,-4 -16,-24 q2,-8 8,-10z" fill="#3b3025" opacity=".07"/><ellipse cx="88" cy="130" rx="13" ry="9" fill="url(#c5blush)"/><ellipse cx="154" cy="130" rx="13" ry="9" fill="url(#c5blush)"/><g fill="none" stroke="#3b3025" stroke-width="1.5" opacity=".4" stroke-linecap="round"><path d="M94,72 q26,-8 50,0"/><path d="M96,78 q24,-6 46,0"/><path d="M78,110 q6,6 4,14"/><path d="M162,110 q-6,6 -4,14"/></g><path d="M80,150 q6,4 4,10" fill="none" stroke="#3b3025" stroke-width="1.4" opacity=".35"/><path d="M160,150 q-6,4 -4,10" fill="none" stroke="#3b3025" stroke-width="1.4" opacity=".35"/><g stroke="#3b3025" stroke-width="2.4" fill="none" stroke-linecap="round" stroke-linejoin="round"><path d="M120,106 q-4,15 -9,22 q-1,6 9,6 q10,0 9,-6 q-5,-7 -9,-22" fill="url(#c5skin)"/><path d="M113,130 q7,4 14,0" stroke-width="1.8"/></g><!-- eyes: see companion *-eyes.svg --><g class="x-neutral"><path d="M80,84 q18,-8 34,-2 q-4,6 -16,5 q-11,-1 -18,-3z" fill="#3b3025" stroke="#3b3025" stroke-width="1"/><path d="M124,82 q17,-6 34,2 q-6,3 -18,3 q-13,0 -16,-5z" fill="#3b3025" stroke="#3b3025" stroke-width="1"/></g><path fill="url(#c5hair)" stroke="#3b3025" stroke-width="2.6" stroke-linejoin="round" d="M84,138 q-6,26 6,44 q14,20 30,20 q16,0 30,-20 q12,-18 6,-44 q-6,14 -12,10 q-4,10 -12,8 q-2,10 -12,10 q-10,0 -12,-10 q-8,2 -12,-8 q-6,4 -12,-10z"/><g class="x-neutral"><path d="M104,152 q16,7 32,0" fill="none" stroke="#3b3025" stroke-width="2.6" stroke-linecap="round"/></g><path d="M108,48 q10,-6 18,0" fill="none" stroke="#3b3025" stroke-width="1.4" opacity=".3"/><g stroke="#3b3025" stroke-width="3.2" stroke-linejoin="round"><path fill="#f7f0df" d="M104,176 q-32,9 -46,30 q-14,20 -16,84 l156,0 q-2,-64 -16,-84 q-14,-21 -46,-30 q-14,8 -32,0z"/><path fill="url(#c5cloth)" d="M104,176 q-14,4 -26,14 l0,110 l40,0 l0,-118 q-7,-4 -14,-6z"/><path fill="url(#c5clothL)" d="M136,176 q14,4 26,14 l0,110 l-40,0 l0,-118 q7,-4 14,-6z"/><circle cx="120" cy="222" r="3" fill="#f7f0df" stroke="#3b3025" stroke-width="1.6"/><circle cx="120" cy="248" r="3" fill="#f7f0df" stroke="#3b3025" stroke-width="1.6"/></g><g stroke="#3b3025" stroke-width="3.2" stroke-linejoin="round"><path fill="url(#c5cloth)" d="M56,196 q-22,10 -24,46 q-1,16 4,28 q4,8 14,7 q8,-1 11,-9 q3,-36 5,-58 q-2,-14 -10,-13z"/><path fill="url(#c5skin)" d="M38,266 q15,6 28,-2 q5,11 -4,19 q-15,7 -28,-3 q-3,-8 4,-14z"/><path d="M46,280 q3,8 -1,14 M55,281 q3,7 0,13 M63,279 q2,7 -1,12" fill="none" stroke-width="2"/><path fill="url(#c5clothL)" d="M184,196 q22,10 24,46 q1,16 -4,28 q-4,8 -14,7 q-8,-1 -11,-9 q-3,-36 -5,-58 q2,-14 10,-13z"/><path fill="url(#c5skin)" d="M202,266 q-15,6 -28,-2 q-5,11 4,19 q15,7 28,-3 q3,-8 -4,-14z"/><path d="M194,280 q-3,8 1,14 M185,281 q-3,7 0,13 M177,279 q-2,7 1,12" fill="none" stroke-width="2"/></g></svg>